# xmcd
# 
# Track frame offsets:
#     150
#     21075
#     35935
#     61058
#     84924
#     102474
#     122430
#     145714
#     167055
#     184242
#     204372
# 
# Disc length: 3036
# 
# Revision: 2
# Processed by: cddbd v1.5.2PL0 Copyright (c) Steve Scherf et al.
# Submitted via: fre:ac v1.0.17
# 
DISCID=8e0bda0b
DTITLE=Jake E. Lee - Retraced
DYEAR=2005
DGENRE=Blues
TTITLE0=Whiskey Train
TTITLE1=Evil
TTITLE2=Way Back To The Bone
TTITLE3=I'll Be Creepin' 
TTITLE4=Guess I'll Go Away
TTITLE5=Love Is Worth The Blues
TTITLE6=I Come Tumblin' 
TTITLE7=Woman
TTITLE8=A Hard Way To Go
TTITLE9=I Can't Stand It
TTITLE10=Rock Candy
EXTD=
EXTT0=
EXTT1=
EXTT2=
EXTT3=
EXTT4=
EXTT5=
EXTT6=
EXTT7=
EXTT8=
EXTT9=
EXTT10=
PLAYORDER=
